<svg xmlns="http://www.w3.org/2000/svg" xmlns:xlink="http://www.w3.org/1999/xlink" viewBox="0 0 200 200"><defs><style>.cls-1{fill:url(#Безымянный_градиент_70);}.cls-2,.cls-3,.cls-4{stroke:#000;stroke-miterlimit:10;}.cls-3,.cls-4{fill:none;}.cls-3{stroke-width:2px;}</style><linearGradient id="Безымянный_градиент_70" y1="100" x2="200" y2="100" gradientUnits="userSpaceOnUse"><stop offset="0.01" stop-color="#7a6e99"/><stop offset="1" stop-color="#847aa1"/></linearGradient></defs><title>dРесурс 15</title><g id="Слой_2" data-name="Слой 2"><g id="Слой_1-2" data-name="Слой 1"><rect class="cls-1" width="200" height="200" rx="35.88"/><circle class="cls-2" cx="97.85" cy="100.42" r="14.68"/><path class="cls-3" d="M113.85,75.83a85.12,85.12,0,0,0-16-1.46C78.06,74.37,62,80.6,62,88.28c0,4.92,6.58,9.25,16.51,11.72"/><path class="cls-4" d="M114.45,76l-.6-.12"/><path class="cls-3" d="M117.15,100c9.93-2.47,16.51-6.8,16.51-11.72,0-3.66-3.64-7-9.6-9.48"/><path class="cls-3" d="M124.83,121.09c5.5-2.44,8.83-5.64,8.83-9.14,0-4.93-6.58-9.25-16.52-11.72"/><path class="cls-3" d="M78.56,100.23C68.62,102.7,62,107,62,112c0,7.68,16,13.91,35.82,13.91a84.12,84.12,0,0,0,16.94-1.65"/><path class="cls-3" d="M66.23,149.79a163.33,163.33,0,0,0,31.62,3c38.24,0,69.24-12,69.24-26.89,0-12.25-21.09-22.59-49.93-25.83"/><path class="cls-3" d="M78.54,100c-28.85,3.24-49.94,13.58-49.94,25.83,0,8.58,10.35,16.22,26.47,21.14"/><path class="cls-3" d="M48.68,55.44C36.27,60.3,28.6,67,28.6,74.37c0,12.25,21.1,22.59,50,25.83"/><path class="cls-3" d="M117.15,100.2C146,97,167.09,86.62,167.09,74.37c0-14.85-31-26.89-69.24-26.89a157.09,157.09,0,0,0-37.34,4.24"/><circle class="cls-2" cx="119.11" cy="77.82" r="2.81"/><circle class="cls-2" cx="54.45" cy="53.61" r="2.81"/><circle class="cls-2" cx="119.97" cy="122.67" r="2.81"/><circle class="cls-2" cx="61.34" cy="148.71" r="2.81"/></g></g></svg>