<svg xmlns="http://www.w3.org/2000/svg" xmlns:xlink="http://www.w3.org/1999/xlink" viewBox="0 0 200 200"><defs><style>.cls-1{fill:url(#Безымянный_градиент_22);}.cls-2{fill:gray;opacity:0.64;}.cls-3{opacity:0.57;}.cls-4,.cls-6,.cls-7,.cls-8,.cls-9{fill:none;stroke:#000;stroke-miterlimit:10;}.cls-5{opacity:0.54;}.cls-6{stroke-width:2px;}.cls-7{opacity:0.5;}.cls-8{opacity:0.48;}.cls-9{stroke-width:3px;}</style><linearGradient id="Безымянный_градиент_22" x1="100" y1="200" x2="100" gradientUnits="userSpaceOnUse"><stop offset="0.01" stop-color="#fff"/><stop offset="1" stop-color="#fff"/></linearGradient></defs><title>dРесурс 32</title><g id="Слой_2" data-name="Слой 2"><g id="Слой_1-2" data-name="Слой 1"><rect class="cls-1" width="200" height="200" rx="35.88"/><rect class="cls-2" x="47.31" y="22.16" width="84.74" height="8"/><g class="cls-3"><line class="cls-4" x1="161.97" y1="157.13" x2="180.64" y2="157.13"/><line class="cls-4" x1="161.97" y1="42.17" x2="180.64" y2="42.17"/><line class="cls-4" x1="180.64" y1="42.17" x2="180.64" y2="157.13"/></g><g class="cls-5"><line class="cls-4" x1="37.61" y1="42.17" x2="18.95" y2="42.17"/><line class="cls-4" x1="37.61" y1="157.13" x2="18.95" y2="157.13"/><line class="cls-4" x1="18.95" y1="157.13" x2="18.95" y2="42.17"/></g><rect class="cls-6" x="98.31" y="89.77" width="35.83" height="35.83" rx="4.54"/><circle cx="103.34" cy="81.31" r="2.88"/><circle cx="116.23" cy="81.31" r="2.88"/><circle class="cls-6" cx="67.73" cy="37.92" r="4.24"/><circle cx="127.46" cy="81.31" r="2.88"/><circle cx="141.64" cy="93.49" r="2.88"/><circle class="cls-6" cx="85.45" cy="38.27" r="4.24"/><circle class="cls-6" cx="105.45" cy="38.27" r="4.24"/><circle class="cls-6" cx="125.46" cy="38.27" r="4.24"/><path class="cls-6" d="M67.73,42.17V55a6.21,6.21,0,0,0,6.09,6.22l23.43.49A6.23,6.23,0,0,1,103.34,68V78.43"/><path class="cls-6" d="M85.45,42.52v7.15a6,6,0,0,0,5.83,6l19.12.55a6,6,0,0,1,5.83,6V78.43"/><path class="cls-6" d="M105.45,43.5v1.25a6.06,6.06,0,0,0,5.86,6.06l10.3.34a6.06,6.06,0,0,1,5.85,6.06V78.43"/><path class="cls-6" d="M130.34,37.92h5a6.27,6.27,0,0,1,6.27,6.27V90.61"/><circle class="cls-7" cx="48.18" cy="119.04" r="15.3"/><circle class="cls-8" cx="48.18" cy="78.43" r="15.3"/><ellipse class="cls-9" cx="48.18" cy="119.28" rx="5.33" ry="8.33"/><rect class="cls-6" x="47.18" y="68.39" width="2.28" height="20.22"/></g></g></svg>