<svg xmlns="http://www.w3.org/2000/svg" xmlns:xlink="http://www.w3.org/1999/xlink" viewBox="0 0 200 200"><defs><style>.cls-1{fill:url(#Безымянный_градиент_61);}.cls-2{fill:none;stroke:#000;stroke-miterlimit:10;stroke-width:2px;}</style><linearGradient id="Безымянный_градиент_61" x1="100" y1="200" x2="100" gradientUnits="userSpaceOnUse"><stop offset="0.01" stop-color="#5d9ead"/><stop offset="1" stop-color="#5395a3"/></linearGradient></defs><title>dРесурс 16</title><g id="Слой_2" data-name="Слой 2"><g id="Слой_1-2" data-name="Слой 1"><rect class="cls-1" width="200" height="200" rx="35.88"/><rect class="cls-2" x="71.88" y="71.4" width="54.26" height="54.26" rx="4.54"/><circle cx="80.61" cy="61.92" r="4.36"/><circle cx="119.43" cy="61.92" r="4.36"/><circle cx="137.12" cy="77.88" r="4.36"/><circle cx="137.12" cy="94.16" r="4.36"/><circle cx="137.12" cy="116.41" r="4.36"/><circle cx="119.43" cy="135.13" r="4.36"/><circle cx="80.61" cy="135.13" r="4.36"/><circle cx="58.09" cy="116.41" r="4.36"/><circle cx="60.2" cy="94.47" r="4.36"/><circle cx="60.2" cy="77.88" r="4.36"/><path class="cls-2" d="M119.43,61.92s-3.15-16.48,17.69-16.28l16-.38"/><path class="cls-2" d="M152.66,45.24C173.47,46.33,171,29.73,171,29.73"/><circle class="cls-2" cx="174.71" cy="24.05" r="6.43"/><path class="cls-2" d="M141.48,116.41h25.1s12-1.56,12,14.36v20.44"/><circle class="cls-2" cx="177.55" cy="157.64" r="6.43"/><line class="cls-2" x1="141.48" y1="77.88" x2="160.97" y2="77.88"/><line class="cls-2" x1="141.48" y1="94.16" x2="161.98" y2="94.16"/><circle class="cls-2" cx="167.39" cy="77.88" r="6.43"/><circle class="cls-2" cx="168.28" cy="94.16" r="6.43"/><line class="cls-2" x1="55.31" y1="94.16" x2="35.82" y2="94.16"/><line class="cls-2" x1="55.31" y1="77.88" x2="34.81" y2="77.88"/><circle class="cls-2" cx="29.4" cy="94.16" r="6.43"/><circle class="cls-2" cx="28.51" cy="77.88" r="6.43"/><path class="cls-2" d="M80.61,57.56V47.62a7,7,0,0,0-1.41-4.19L69.82,31a17.54,17.54,0,0,0-14-7h0"/><circle class="cls-2" cx="49.41" cy="24.05" r="6.43"/><path class="cls-2" d="M76.24,135.13H66.46a17,17,0,0,0-17,17.05v26.15"/><circle class="cls-2" cx="49.41" cy="184.97" r="6.43"/><path class="cls-2" d="M123.79,135.13h10.8A10.4,10.4,0,0,1,145,145.53v5.68"/><circle class="cls-2" cx="144.98" cy="156.73" r="6.43"/><path class="cls-2" d="M53.73,116.41H40.21A10.81,10.81,0,0,0,29.4,127.22v15.95"/><circle class="cls-2" cx="29.4" cy="148.95" r="6.43"/></g></g></svg>