<svg xmlns="http://www.w3.org/2000/svg" xmlns:xlink="http://www.w3.org/1999/xlink" viewBox="0 0 201 201"><defs><style>.cls-1,.cls-2{stroke:#000;stroke-miterlimit:10;}.cls-1{fill:url(#Безымянный_градиент_61);}.cls-2{fill:none;stroke-width:2px;}</style><linearGradient id="Безымянный_градиент_61" x1="100.5" y1="200.5" x2="100.5" y2="0.5" gradientUnits="userSpaceOnUse"><stop offset="0.01" stop-color="#5d9ead"/><stop offset="1" stop-color="#5395a3"/></linearGradient></defs><title>dРесурс 9</title><g id="Слой_2" data-name="Слой 2"><g id="Слой_1-2" data-name="Слой 1"><rect class="cls-1" x="0.5" y="0.5" width="200" height="200" rx="35.88"/><rect class="cls-2" x="72.38" y="71.9" width="54.26" height="54.26" rx="4.54"/><circle cx="81.11" cy="62.42" r="4.36"/><circle cx="119.93" cy="62.42" r="4.36"/><circle cx="137.62" cy="78.38" r="4.36"/><circle cx="137.62" cy="94.66" r="4.36"/><circle cx="137.62" cy="116.91" r="4.36"/><circle cx="119.93" cy="135.63" r="4.36"/><circle cx="81.11" cy="135.63" r="4.36"/><circle cx="58.59" cy="116.91" r="4.36"/><circle cx="60.7" cy="94.97" r="4.36"/><circle cx="60.7" cy="78.38" r="4.36"/><path class="cls-2" d="M119.93,62.42s-3.15-16.48,17.69-16.28l16-.38"/><path class="cls-2" d="M153.16,45.74c20.81,1.09,18.38-15.51,18.38-15.51"/><circle class="cls-2" cx="175.21" cy="24.55" r="6.43"/><path class="cls-2" d="M142,116.91h25.1s12-1.56,12,14.36v20.44"/><circle class="cls-2" cx="178.05" cy="158.14" r="6.43"/><line class="cls-2" x1="141.98" y1="78.38" x2="161.47" y2="78.38"/><line class="cls-2" x1="141.98" y1="94.66" x2="162.48" y2="94.66"/><circle class="cls-2" cx="167.89" cy="78.38" r="6.43"/><circle class="cls-2" cx="168.78" cy="94.66" r="6.43"/><line class="cls-2" x1="55.81" y1="94.66" x2="36.32" y2="94.66"/><line class="cls-2" x1="55.81" y1="78.38" x2="35.31" y2="78.38"/><circle class="cls-2" cx="29.9" cy="94.66" r="6.43"/><circle class="cls-2" cx="29.01" cy="78.38" r="6.43"/><path class="cls-2" d="M81.11,58.06V48.12a7,7,0,0,0-1.41-4.19L70.32,31.51a17.54,17.54,0,0,0-14-7h0"/><circle class="cls-2" cx="49.91" cy="24.55" r="6.43"/><path class="cls-2" d="M76.74,135.63H67a17,17,0,0,0-17,17.05v26.15"/><circle class="cls-2" cx="49.91" cy="185.47" r="6.43"/><path class="cls-2" d="M124.29,135.63h10.8A10.4,10.4,0,0,1,145.48,146v5.68"/><circle class="cls-2" cx="145.48" cy="157.23" r="6.43"/><path class="cls-2" d="M54.23,116.91H40.71A10.81,10.81,0,0,0,29.9,127.72v15.95"/><circle class="cls-2" cx="29.9" cy="149.45" r="6.43"/></g></g></svg>