<svg xmlns="http://www.w3.org/2000/svg" xmlns:xlink="http://www.w3.org/1999/xlink" viewBox="0 0 200 200"><defs><style>.cls-1{fill:url(#Безымянный_градиент_207);}.cls-2,.cls-3{fill:none;stroke:#000;stroke-miterlimit:10;}.cls-2{stroke-width:2px;}.cls-3{stroke-width:3px;}</style><linearGradient id="Безымянный_градиент_207" x1="100" x2="100" y2="200" gradientUnits="userSpaceOnUse"><stop offset="0" stop-color="#b97d7f"/><stop offset="1" stop-color="#b97d7f"/></linearGradient></defs><title>dРесурс 29</title><g id="Слой_2" data-name="Слой 2"><g id="Слой_1-2" data-name="Слой 1"><rect class="cls-1" width="200" height="200" rx="40.42"/><polyline class="cls-2" points="125.08 135.57 117.53 124.84 108.99 135"/><path class="cls-3" d="M16.09,103.82H58.73c.78,0,1.51-.65,2-1.76L69,81.88c1-2.47,3.15-2.31,4,.31l7.32,21.52,7.3,20.86c1.12,3.2,3,3.2,4.1,0l7.42-20.87,7.16-21.06c.93-2.73,3.19-2.76,4.14-.05l7.34,20.92,7.23,20.9c1.14,3.28,3,3.28,4.13,0l7.23-20.9,7.23-20.88c1.14-3.3,3-3.3,4.13,0l6.53,19c.44,1.27,1.22,2,2.07,2h18.53"/><path class="cls-3" d="M186.16,103.35S176,97.78,172.22,80.12"/><path class="cls-3" d="M186.16,103.35s-10.18,5.57-13.94,23.22"/><path class="cls-2" d="M13.48,167.19l88-1.16a21.12,21.12,0,0,0,7.74-1.51c4-1.64,8.63-5,8.63-11.88v-26"/></g></g></svg>