<svg xmlns="http://www.w3.org/2000/svg" xmlns:xlink="http://www.w3.org/1999/xlink" viewBox="0 0 201 201"><defs><style>.cls-1,.cls-2,.cls-3,.cls-4{stroke:#000;stroke-miterlimit:10;}.cls-1{fill:url(#Безымянный_градиент_70);}.cls-3,.cls-4{fill:none;}.cls-3{stroke-width:2px;}</style><linearGradient id="Безымянный_градиент_70" x1="0.5" y1="100.5" x2="200.5" y2="100.5" gradientUnits="userSpaceOnUse"><stop offset="0.01" stop-color="#7a6e99"/><stop offset="1" stop-color="#847aa1"/></linearGradient></defs><title>dРесурс 5</title><g id="Слой_2" data-name="Слой 2"><g id="Слой_1-2" data-name="Слой 1"><g id="И"><rect class="cls-1" x="0.5" y="0.5" width="200" height="200" rx="35.88"/><circle class="cls-2" cx="98.35" cy="100.92" r="14.68"/><path class="cls-3" d="M114.35,76.33a85.12,85.12,0,0,0-16-1.46c-19.79,0-35.82,6.23-35.82,13.91C62.53,93.7,69.11,98,79,100.5"/><path class="cls-4" d="M115,76.45l-.6-.12"/><path class="cls-3" d="M117.65,100.5c9.93-2.47,16.51-6.8,16.51-11.72,0-3.66-3.64-7-9.6-9.48"/><path class="cls-3" d="M125.33,121.59c5.5-2.44,8.83-5.64,8.83-9.14,0-4.93-6.58-9.25-16.52-11.72"/><path class="cls-3" d="M79.06,100.73c-9.94,2.47-16.53,6.79-16.53,11.72,0,7.68,16,13.91,35.82,13.91a84.12,84.12,0,0,0,16.94-1.65"/><path class="cls-3" d="M66.73,150.29a163.33,163.33,0,0,0,31.62,3c38.24,0,69.24-12,69.24-26.89,0-12.25-21.09-22.59-49.93-25.83"/><path class="cls-3" d="M79,100.53c-28.85,3.24-49.94,13.58-49.94,25.83,0,8.58,10.35,16.22,26.47,21.14"/><path class="cls-3" d="M49.18,55.94C36.77,60.8,29.1,67.49,29.1,74.87c0,12.25,21.1,22.59,50,25.83"/><path class="cls-3" d="M117.65,100.7c28.85-3.24,49.94-13.58,49.94-25.83C167.59,60,136.59,48,98.35,48A157.09,157.09,0,0,0,61,52.22"/><circle class="cls-2" cx="119.61" cy="78.32" r="2.81"/><circle class="cls-2" cx="54.95" cy="54.11" r="2.81"/><circle class="cls-2" cx="120.47" cy="123.17" r="2.81"/><circle class="cls-2" cx="61.84" cy="149.21" r="2.81"/></g></g></g></svg>