<svg xmlns="http://www.w3.org/2000/svg" viewBox="0 0 165.5 166.29"><defs><style>.cls-1{fill:gray;opacity:0.64;}.cls-2,.cls-3,.cls-4,.cls-5{fill:none;stroke:#000;stroke-miterlimit:10;}.cls-2{stroke-width:2px;}.cls-3{opacity:0.5;}.cls-4{opacity:0.48;}.cls-5{stroke-width:3px;}</style></defs><title>dРесурс 34</title><g id="Слой_2" data-name="Слой 2"><g id="Слой_1-2" data-name="Слой 1"><rect class="cls-1" x="21.83" width="125.24" height="11.82"/><rect class="cls-2" x="97.2" y="99.92" width="52.96" height="52.96" rx="4.54"/><circle cx="104.64" cy="87.4" r="4.26"/><circle cx="123.68" cy="87.4" r="4.26"/><circle class="cls-2" cx="52" cy="23.29" r="6.27"/><circle cx="140.28" cy="87.4" r="4.26"/><circle cx="161.24" cy="105.41" r="4.26"/><circle class="cls-2" cx="78.2" cy="23.81" r="6.27"/><circle class="cls-2" cx="107.76" cy="23.81" r="6.27"/><circle class="cls-2" cx="137.32" cy="23.81" r="6.27"/><path class="cls-2" d="M52,29.56v19a9.19,9.19,0,0,0,9,9.2l34.62.72a9.2,9.2,0,0,1,9,9.2V83.15"/><path class="cls-2" d="M78.2,30.08V40.65a8.86,8.86,0,0,0,8.61,8.86l28.26.82a8.86,8.86,0,0,1,8.61,8.86v24"/><path class="cls-2" d="M107.76,31.53v1.85a9,9,0,0,0,8.65,8.95l15.23.51a8.94,8.94,0,0,1,8.64,8.95V83.15"/><path class="cls-2" d="M144.54,23.29H152a9.27,9.27,0,0,1,9.27,9.26v68.6"/><circle class="cls-3" cx="23.11" cy="143.18" r="22.61"/><circle class="cls-4" cx="23.11" cy="83.15" r="22.61"/><ellipse class="cls-5" cx="23.11" cy="143.52" rx="7.88" ry="12.32"/><rect class="cls-2" x="21.64" y="68.31" width="3.37" height="29.88"/></g></g></svg>