<svg xmlns="http://www.w3.org/2000/svg" xmlns:xlink="http://www.w3.org/1999/xlink" viewBox="0 0 201 201"><defs><style>.cls-1,.cls-2,.cls-3{stroke:#000;stroke-miterlimit:10;}.cls-1{fill:url(#Безымянный_градиент_53);}.cls-2,.cls-3{fill:none;}.cls-2{stroke-width:2px;}.cls-3{stroke-width:3px;}</style><linearGradient id="Безымянный_градиент_53" x1="0.5" y1="100.5" x2="200.5" y2="100.5" gradientUnits="userSpaceOnUse"><stop offset="0.01" stop-color="#ab6466"/><stop offset="1" stop-color="#b27172"/></linearGradient></defs><title>dРесурс 4</title><g id="Слой_2" data-name="Слой 2"><g id="Слой_1-2" data-name="Слой 1"><g id="Р"><rect class="cls-1" x="0.5" y="0.5" width="200" height="200" rx="25.75"/><polyline class="cls-2" points="15.46 153.55 58.54 153.55 152.94 60.44"/><polyline class="cls-2" points="150.92 73.67 152.71 60.67 139.53 62.29"/><path class="cls-3" d="M18.07,100.92H60.71c.78,0,1.51-.66,2-1.76L71,79c1-2.48,3.15-2.32,4,.3l7.32,21.52,7.29,20.85c.94,2.68,3.17,2.69,4.11,0l7.42-20.87,7.16-21.06c.93-2.73,3.18-2.76,4.13,0l7.35,20.92,7.23,20.9c.94,2.72,3.19,2.72,4.13,0l7.23-20.9,7.22-20.88c.95-2.72,3.2-2.72,4.14,0l6.53,19c.44,1.27,1.22,2,2.07,2h18.53"/><path class="cls-3" d="M188.14,100.44S178,94.87,174.2,77.22"/><path class="cls-3" d="M188.14,100.44S178,106,174.2,123.66"/></g></g></g></svg>