<svg xmlns="http://www.w3.org/2000/svg" xmlns:xlink="http://www.w3.org/1999/xlink" viewBox="0 0 200 200"><defs><style>.cls-1{fill:url(#Безымянный_градиент_199);}.cls-2,.cls-3{fill:none;stroke:#000;stroke-miterlimit:10;}.cls-2{stroke-width:2px;}.cls-3{stroke-width:3px;}</style><linearGradient id="Безымянный_градиент_199" x1="100" x2="100" y2="200" gradientUnits="userSpaceOnUse"><stop offset="0" stop-color="#b97d7f"/><stop offset="1" stop-color="#c79798"/></linearGradient></defs><title>dРесурс 26</title><g id="Слой_2" data-name="Слой 2"><g id="Слой_1-2" data-name="Слой 1"><rect class="cls-1" width="200" height="200" rx="25.75"/><polyline class="cls-2" points="126.56 132.16 119.01 121.43 110.47 131.59"/><path class="cls-3" d="M17.57,100.42H60.21c.78,0,1.51-.66,2-1.76l8.28-20.18c1-2.48,3.15-2.32,4,.3l7.32,21.52,7.29,20.85c.94,2.68,3.17,2.69,4.11,0l7.42-20.87,7.16-21.06c.93-2.73,3.18-2.76,4.13,0l7.35,20.92L126.5,121c.94,2.72,3.19,2.72,4.13,0l7.23-20.9,7.22-20.88c.95-2.72,3.2-2.72,4.14,0l6.53,19c.44,1.27,1.22,2,2.07,2h18.53"/><path class="cls-3" d="M187.64,99.94s-10.18-5.57-13.94-23.22"/><path class="cls-3" d="M187.64,99.94s-10.18,5.57-13.94,23.22"/><path class="cls-2" d="M15,163.78l100.84-1.33h0a3.55,3.55,0,0,0,3.55-3.55V123.18"/></g></g></svg>