<svg xmlns="http://www.w3.org/2000/svg" xmlns:xlink="http://www.w3.org/1999/xlink" viewBox="0 0 201 201"><defs><style>.cls-1,.cls-2{stroke:#000;stroke-miterlimit:10;}.cls-1{opacity:0.9;fill:url(#Безымянный_градиент_44);}.cls-2{fill:none;stroke-width:3px;}</style><linearGradient id="Безымянный_градиент_44" x1="100.5" y1="0.5" x2="100.5" y2="200.5" gradientUnits="userSpaceOnUse"><stop offset="0.01" stop-color="#ffc562"/><stop offset="1" stop-color="#ffcc76"/></linearGradient></defs><title>dРесурс 3</title><g id="Слой_2" data-name="Слой 2"><g id="Слой_1-2" data-name="Слой 1"><g id="У"><rect class="cls-1" x="0.5" y="0.5" width="200" height="200" rx="41.35"/><path class="cls-2" d="M14.73,100.92H57.37c.78,0,1.51-.66,2-1.76L67.61,79c1-2.48,3.15-2.32,4,.3L79,100.8l7.29,20.85c.94,2.68,3.17,2.69,4.11,0l7.42-20.87L105,79.74c.93-2.73,3.18-2.76,4.13,0l7.35,20.92,7.23,20.9c.94,2.72,3.19,2.72,4.13,0l7.23-20.9,7.22-20.88c.95-2.72,3.2-2.72,4.14,0l6.53,19c.44,1.27,1.22,2,2.07,2h18.53"/><path class="cls-2" d="M184.8,100.44s-10.18-5.57-13.94-23.22"/><path class="cls-2" d="M184.8,100.44s-10.18,5.57-13.94,23.22"/></g></g></g></svg>