<svg xmlns="http://www.w3.org/2000/svg" viewBox="0 0 173.41 89.57"><defs><style>.cls-1,.cls-2{fill:none;stroke:#000;stroke-miterlimit:10;}.cls-1{stroke-width:2px;}.cls-2{stroke-width:3px;}</style></defs><title>dРесурс 24</title><g id="Слой_2" data-name="Слой 2"><g id="Слой_1-2" data-name="Слой 1"><polyline class="cls-1" points="111.61 56.95 104.06 46.22 95.52 56.38"/><path class="cls-2" d="M2.62,25.2H45.26c.78,0,1.51-.66,2-1.76L55.5,3.26c1-2.47,3.15-2.31,4,.3l7.32,21.53,7.29,20.84c.94,2.68,3.17,2.69,4.11,0l7.42-20.86L92.84,4C93.77,1.3,96,1.27,97,4l7.35,20.92,7.23,20.9c.94,2.72,3.19,2.72,4.13,0l7.23-20.9L130.13,4c1-2.72,3.2-2.71,4.14,0l6.53,19c.44,1.27,1.22,2.05,2.07,2.05H161.4"/><path class="cls-2" d="M172.69,24.72S162.51,19.15,158.75,1.5"/><path class="cls-2" d="M172.69,24.72S162.51,30.29,158.75,48"/><path class="cls-1" d="M0,88.57l100.84-1.34h0a3.55,3.55,0,0,0,3.55-3.55V48"/></g></g></svg>