<svg xmlns="http://www.w3.org/2000/svg" xmlns:xlink="http://www.w3.org/1999/xlink" viewBox="0 0 200 200"><defs><style>.cls-1{fill:url(#Безымянный_градиент_18);}.cls-2,.cls-3{fill:none;stroke:#000;stroke-miterlimit:10;}.cls-2{stroke-width:2px;}</style><linearGradient id="Безымянный_градиент_18" x1="10.51" y1="10.51" x2="189.49" y2="189.49" gradientUnits="userSpaceOnUse"><stop offset="0.01" stop-color="#bfffdc" stop-opacity="0.3"/><stop offset="0.42" stop-color="#91d1c3" stop-opacity="0.6"/><stop offset="1" stop-color="#5395a3"/></linearGradient></defs><title>dРесурс 31</title><g id="Слой_2" data-name="Слой 2"><g id="Слой_1-2" data-name="Слой 1"><rect class="cls-1" width="200" height="200" rx="35.88"/><rect class="cls-2" x="71.88" y="71.4" width="54.26" height="54.26" rx="4.54"/><circle cx="80.61" cy="61.92" r="4.36"/><circle cx="119.43" cy="61.92" r="4.36"/><circle cx="137.12" cy="116.41" r="4.36"/><circle cx="119.43" cy="135.13" r="4.36"/><circle cx="80.61" cy="135.13" r="4.36"/><circle cx="58.09" cy="116.41" r="4.36"/><path class="cls-2" d="M119.43,61.92s-3.15-16.48,17.69-16.28l16-.38"/><path class="cls-2" d="M152.66,45.24C173.47,46.33,171,29.73,171,29.73"/><circle class="cls-2" cx="174.71" cy="24.05" r="6.43"/><path class="cls-2" d="M141.48,116.41h25.1s12-1.56,12,14.36v20.44"/><circle class="cls-2" cx="177.55" cy="157.64" r="6.43"/><circle class="cls-3" cx="99.01" cy="112.52" r="9.52"/><path class="cls-2" d="M80.61,57.56V47.62a7,7,0,0,0-1.41-4.19L69.82,31a17.54,17.54,0,0,0-14-7h0"/><circle class="cls-2" cx="49.41" cy="24.05" r="6.43"/><path class="cls-2" d="M76.24,135.13H66.46a17,17,0,0,0-17,17.05v26.15"/><circle class="cls-2" cx="49.41" cy="184.97" r="6.43"/><path class="cls-2" d="M123.79,135.13h10.8A10.4,10.4,0,0,1,145,145.53v5.68"/><circle class="cls-2" cx="144.98" cy="156.73" r="6.43"/><path class="cls-2" d="M53.73,116.41H40.21A10.81,10.81,0,0,0,29.4,127.22v15.95"/><circle class="cls-2" cx="29.4" cy="148.95" r="6.43"/><circle class="cls-3" cx="99.01" cy="86.06" r="9.52"/><path d="M99.41,90.69h-.62v-7a3.91,3.91,0,0,1-.92.43,4.3,4.3,0,0,1-1.19.19v-.63a2.83,2.83,0,0,0,1.53-.43A1.89,1.89,0,0,0,99,82.14h.44Z"/><path d="M102.13,113.13a6.24,6.24,0,0,1-.22,1.7,4.94,4.94,0,0,1-.6,1.42,3.17,3.17,0,0,1-1,1,2.53,2.53,0,0,1-2.6,0,3.07,3.07,0,0,1-1-1,4.68,4.68,0,0,1-.6-1.42,6.63,6.63,0,0,1-.21-1.69,6.77,6.77,0,0,1,.21-1.7,4.71,4.71,0,0,1,.59-1.41,3.17,3.17,0,0,1,1-1,2.53,2.53,0,0,1,2.6,0,3,3,0,0,1,1,1,4.52,4.52,0,0,1,.61,1.41A6.65,6.65,0,0,1,102.13,113.13Zm-.62,0a7,7,0,0,0-.16-1.47,4.06,4.06,0,0,0-.47-1.2,2.43,2.43,0,0,0-.77-.82,2,2,0,0,0-2.11,0,2.53,2.53,0,0,0-.77.82,4.25,4.25,0,0,0-.48,1.21,7,7,0,0,0-.16,1.47,6.78,6.78,0,0,0,.16,1.45,4.24,4.24,0,0,0,.47,1.21,2.37,2.37,0,0,0,.77.83,1.89,1.89,0,0,0,1.06.31,1.94,1.94,0,0,0,1.07-.31,2.67,2.67,0,0,0,.77-.83,4.3,4.3,0,0,0,.46-1.22A6.11,6.11,0,0,0,101.51,113.13Z"/></g></g></svg>