<?xml version="1.0" encoding="UTF-8" standalone="no"?><!-- Generator: Gravit.io --><svg xmlns="http://www.w3.org/2000/svg" xmlns:xlink="http://www.w3.org/1999/xlink" style="isolation:isolate" viewBox="0 0 252.28 161.57" width="252.28pt" height="161.57pt"><defs><clipPath id="_clipPath_bz4yEAh4HLaEPaek5gDzCBgrZtXaPgzZ"><rect width="252.28" height="161.57"/></clipPath></defs><g clip-path="url(#_clipPath_bz4yEAh4HLaEPaek5gDzCBgrZtXaPgzZ)"><g><g><line x1="154.168" y1="85.653" x2="154.177" y2="85.653" vector-effect="non-scaling-stroke" stroke-width="0.1" stroke="rgb(24,26,28)" stroke-linejoin="miter" stroke-linecap="butt" stroke-miterlimit="3" style="mix-blend-mode:source-over;"/><path d=" M 101.807 107.367 C 101.78 107.323 101.763 107.279 101.745 107.243 C 101.736 107.234 101.736 107.225 101.736 107.216" fill="none" vector-effect="non-scaling-stroke" stroke-width="0.1" stroke="rgb(24,26,28)" stroke-linejoin="miter" stroke-linecap="butt" stroke-miterlimit="3" style="mix-blend-mode:source-over;"/><path d=" M 154.23 83.643 C 154.221 84.639 154.194 85.635 154.123 86.604 C 154.141 86.328 154.149 85.999 154.167 85.653 C 154.194 84.95 154.221 84.186 154.23 83.643 Z " fill="rgb(255,198,67)"/><path d=" M 154.23 83.643 C 154.221 84.639 154.194 85.635 154.123 86.604 C 154.141 86.328 154.149 85.999 154.167 85.653 C 154.194 84.95 154.221 84.186 154.23 83.643 Z " fill="none" vector-effect="non-scaling-stroke" stroke-width="0.1" stroke="rgb(24,26,28)" stroke-linejoin="miter" stroke-linecap="butt" stroke-miterlimit="3" style="mix-blend-mode:source-over;"/><path d=" M 125.822 121.962 C 125.742 121.953 125.653 121.953 125.582 121.935" fill="none" vector-effect="non-scaling-stroke" stroke-width="0.1" stroke="rgb(24,26,28)" stroke-linejoin="miter" stroke-linecap="butt" stroke-miterlimit="3" style="mix-blend-mode:source-over;"/><path d=" M 103.075 68.61 C 103.066 68.646 103.048 68.69 103.039 68.735" fill="none" vector-effect="non-scaling-stroke" stroke-width="0.1" stroke="rgb(24,26,28)" stroke-linejoin="miter" stroke-linecap="butt" stroke-miterlimit="3" style="mix-blend-mode:source-over;"/><path d=" M 117.539 125.283 C 117.076 125.14 116.614 124.998 116.17 124.847" fill="none" vector-effect="non-scaling-stroke" stroke-width="0.1" stroke="rgb(24,26,28)" stroke-linejoin="miter" stroke-linecap="butt" stroke-miterlimit="3" style="mix-blend-mode:source-over;"/><path d=" M 147.587 46.306 C 147.543 46.279 147.507 46.253 147.472 46.235" fill="none" vector-effect="non-scaling-stroke" stroke-width="0.1" stroke="rgb(24,26,28)" stroke-linejoin="miter" stroke-linecap="butt" stroke-miterlimit="3" style="mix-blend-mode:source-over;"/><path d=" M 130.831 126.472 C 130.671 126.49 130.52 126.517 130.36 126.534 C 130.217 126.552 130.066 126.57 129.915 126.588 L 130.831 126.472 Z " fill="rgb(244,223,79)"/><path d=" M 130.831 126.472 C 130.671 126.49 130.52 126.517 130.36 126.534 C 130.217 126.552 130.066 126.57 129.915 126.588 L 130.831 126.472 Z " fill="none" vector-effect="non-scaling-stroke" stroke-width="0.1" stroke="rgb(24,26,28)" stroke-linejoin="miter" stroke-linecap="butt" stroke-miterlimit="3" style="mix-blend-mode:source-over;"/><path d=" M 103.188 68.606 C 103.152 68.606 103.117 68.606 103.072 68.606" fill="none" vector-effect="non-scaling-stroke" stroke-width="0.1" stroke="rgb(24,26,28)" stroke-linejoin="miter" stroke-linecap="butt" stroke-miterlimit="3" style="mix-blend-mode:source-over;"/><line x1="147.587" y1="46.306" x2="147.472" y2="46.386" vector-effect="non-scaling-stroke" stroke-width="0.1" stroke="rgb(24,26,28)" stroke-linejoin="miter" stroke-linecap="butt" stroke-miterlimit="3" style="mix-blend-mode:source-over;"/><path d=" M 207.372 77.405 L 201.985 80.925 L 201.976 80.925 C 201.896 72.071 199.806 63.616 196.072 55.863 L 196.072 48.884 L 197.353 47.293 C 203.069 56.379 206.599 66.576 207.372 77.405 Z " fill="rgb(0,0,0)"/><path d=" M 207.372 77.405 L 201.985 80.925 L 201.976 80.925 C 201.896 72.071 199.806 63.616 196.072 55.863 L 196.072 48.884 L 197.353 47.293 C 203.069 56.379 206.599 66.576 207.372 77.405 Z " fill="none" vector-effect="non-scaling-stroke" stroke-width="0.1" stroke="rgb(0,0,0)" stroke-linejoin="miter" stroke-linecap="butt" stroke-miterlimit="3" style="mix-blend-mode:source-over;"/><path d=" M 206.556 93.038 C 204.929 102.106 201.355 110.632 196.199 118.313 L 196.145 106.836 C 199.141 100.577 201.062 93.865 201.72 86.85 L 206.556 93.038 Z " fill="rgb(0,0,0)"/><path d=" M 206.556 93.038 C 204.929 102.106 201.355 110.632 196.199 118.313 L 196.145 106.836 C 199.141 100.577 201.062 93.865 201.72 86.85 L 206.556 93.038 Z " fill="none" vector-effect="non-scaling-stroke" stroke-width="0.1" stroke="rgb(24,26,28)" stroke-linejoin="miter" stroke-linecap="butt" stroke-miterlimit="3" style="mix-blend-mode:source-over;"/><line x1="99.22" y1="107.367" x2="99.167" y2="107.367" vector-effect="non-scaling-stroke" stroke-width="0.1" stroke="rgb(24,26,28)" stroke-linejoin="miter" stroke-linecap="butt" stroke-miterlimit="3" style="mix-blend-mode:source-over;"/><path d=" M 49.194 37.092 L 55.782 37.092 C 70.976 22.112 93.726 12.581 119.153 12.581 L 119.153 12.581 C 144.571 12.581 167.322 22.103 182.506 37.083 L 182.506 37.083 L 189.583 37.083 C 173.483 19.284 148.038 7.798 119.393 7.798 L 119.393 7.798 C 90.739 7.798 65.286 19.284 49.194 37.092 Z " fill="rgb(0,0,0)"/><path d=" M 189.582 37.086 L 182.506 37.086 C 167.321 22.105 144.579 12.584 119.152 12.584 C 93.726 12.584 70.975 22.105 55.781 37.095 L 49.193 37.095 C 65.294 19.296 90.747 7.801 119.392 7.801 C 148.037 7.801 173.482 19.287 189.582 37.086 Z " fill="none" vector-effect="non-scaling-stroke" stroke-width="0.1" stroke="rgb(24,26,28)" stroke-linejoin="miter" stroke-linecap="butt" stroke-miterlimit="3" style="mix-blend-mode:source-over;"/><path d=" M 130.831 126.472 C 130.671 126.49 130.52 126.517 130.36 126.534 C 130.217 126.552 130.066 126.57 129.915 126.588 L 130.831 126.472 Z  M 184.013 118.017 L 180.066 121.991 L 174.207 122.054 L 174.323 125.636 L 182.466 125.805 C 167.273 140.759 144.549 150.254 119.158 150.254 C 93.678 150.254 70.891 140.706 55.698 125.663 L 60.498 125.663 L 60.498 122.952 C 60.498 122.463 60.107 122.062 59.618 122.062 L 55.618 122 L 50.763 118.24 L 50.728 46.832 L 83.418 46.832 L 83.418 117.137 L 79.497 121.831 L 73.71 121.991 L 73.71 125.663 L 105.324 125.663 L 105.324 122.054 L 100.381 122.054 L 96.834 117.395 L 96.834 110.194 L 96.807 57.127 L 96.798 50.468 L 96.834 49.348 L 100.292 45.854 L 101.67 45.854 L 101.643 51.375 L 101.572 68.622 L 103.075 68.613 C 107.004 54.344 116.553 44.271 127.692 44.271 C 127.924 44.271 128.155 44.28 128.386 44.289 C 128.581 44.289 128.786 44.307 128.982 44.316 C 129.195 44.333 129.408 44.351 129.613 44.378 C 129.773 44.387 129.924 44.413 130.084 44.431 C 130.164 44.44 130.253 44.449 130.333 44.467 C 130.422 44.476 130.502 44.484 130.582 44.502 C 130.715 44.529 130.857 44.547 131 44.573 C 131.106 44.591 131.213 44.609 131.329 44.636 C 131.4 44.644 131.489 44.671 131.578 44.689 C 131.746 44.724 131.898 44.76 132.067 44.796 C 132.102 44.805 132.129 44.813 132.155 44.822 C 132.315 44.858 132.475 44.902 132.627 44.947 C 132.716 44.973 132.813 44.991 132.893 45.018 C 132.982 45.045 133.071 45.071 133.151 45.098 C 133.285 45.142 133.427 45.178 133.569 45.231 C 133.649 45.258 133.738 45.285 133.827 45.32 C 133.907 45.347 133.978 45.373 134.058 45.4 C 134.227 45.462 134.387 45.525 134.556 45.587 C 134.734 45.658 134.92 45.729 135.098 45.809 C 135.152 45.827 135.214 45.854 135.267 45.88 C 135.489 45.978 135.703 46.076 135.916 46.174 C 136.014 46.218 136.112 46.271 136.209 46.316 C 136.325 46.378 136.45 46.44 136.574 46.503 C 136.681 46.556 136.787 46.618 136.894 46.672 C 137.276 46.876 137.659 47.098 138.032 47.329 C 138.405 47.561 138.77 47.801 139.134 48.058 C 139.312 48.192 139.499 48.316 139.677 48.458 C 139.81 48.547 139.935 48.645 140.059 48.743 C 140.192 48.841 140.317 48.939 140.441 49.054 C 140.584 49.152 140.708 49.268 140.85 49.374 C 140.904 49.428 140.975 49.472 141.028 49.534 C 141.144 49.623 141.259 49.721 141.375 49.828 C 141.49 49.934 141.606 50.032 141.73 50.148 C 141.757 50.165 141.775 50.183 141.793 50.21 C 141.962 50.361 142.131 50.521 142.282 50.672 C 142.442 50.814 142.593 50.966 142.744 51.117 C 142.78 51.161 142.815 51.197 142.851 51.232 C 142.984 51.366 143.117 51.508 143.251 51.65 C 143.268 51.668 143.277 51.686 143.295 51.703 C 143.429 51.846 143.571 51.988 143.695 52.13 C 143.749 52.192 143.811 52.255 143.864 52.326 C 143.98 52.45 144.095 52.584 144.211 52.726 C 144.335 52.859 144.451 53.01 144.575 53.153 C 144.718 53.33 144.869 53.508 145.011 53.686 C 145.704 54.557 146.362 55.491 146.994 56.46 C 147.109 56.647 147.234 56.833 147.34 57.02 C 147.483 57.242 147.634 57.482 147.758 57.713 C 147.9 57.945 148.043 58.176 148.167 58.407 C 148.265 58.585 148.372 58.763 148.461 58.949 C 148.585 59.171 148.709 59.403 148.825 59.634 L 149.118 60.194 L 149.376 60.727 C 149.492 60.958 149.598 61.19 149.705 61.421 C 149.803 61.625 149.892 61.83 149.981 62.043 C 150.025 62.141 150.07 62.23 150.114 62.336 C 150.185 62.505 150.265 62.674 150.327 62.843 C 150.532 63.314 150.719 63.803 150.905 64.292 C 150.976 64.461 151.03 64.63 151.092 64.808 C 151.101 64.826 151.11 64.844 151.119 64.87 C 151.208 65.11 151.297 65.35 151.385 65.59 C 151.563 66.124 151.75 66.666 151.91 67.208 C 152.079 67.751 152.23 68.293 152.381 68.853 C 152.39 68.871 152.39 68.88 152.399 68.907 C 152.541 69.44 152.675 69.982 152.808 70.533 C 152.87 70.809 152.932 71.094 152.995 71.378 C 153.039 71.591 153.084 71.796 153.128 72.009 C 153.164 72.152 153.19 72.303 153.217 72.445 C 153.235 72.516 153.244 72.587 153.252 72.667 C 153.297 72.872 153.332 73.076 153.368 73.289 C 153.412 73.521 153.457 73.761 153.492 73.992 C 153.546 74.285 153.59 74.588 153.626 74.881 C 153.67 75.148 153.706 75.405 153.741 75.681 C 153.759 75.752 153.759 75.823 153.768 75.894 C 153.804 76.099 153.83 76.303 153.848 76.517 C 153.866 76.65 153.884 76.783 153.901 76.917 L 153.955 77.486 C 153.973 77.575 153.981 77.672 153.981 77.761 C 153.999 77.975 154.017 78.188 154.035 78.41 C 154.061 78.686 154.088 78.962 154.097 79.246 C 154.106 79.299 154.115 79.362 154.115 79.415 L 154.115 79.451 L 154.115 79.415 L 123.523 79.575 L 123.523 85.621 L 154.168 85.656 C 154.195 84.954 154.222 84.18 154.23 83.647 C 154.222 84.643 154.195 85.629 154.124 86.607 L 154.124 86.732 C 154.106 86.972 154.097 87.159 154.088 87.265 C 152.692 106.815 141.41 122.054 127.692 122.054 C 127.061 122.054 126.439 122.027 125.825 121.965 C 125.47 121.982 125.114 121.991 124.759 121.991 C 114.606 121.991 105.84 115.999 101.803 107.367 L 99.216 107.367 C 102.23 115.812 109.022 122.454 117.54 125.281 C 117.557 125.29 117.575 125.299 117.593 125.299 C 120.66 126.205 123.896 126.712 127.221 126.757 L 127.248 126.757 C 127.39 126.757 127.532 126.757 127.684 126.757 C 149.234 126.757 166.713 107.393 166.713 83.514 C 166.713 67.68 159.04 53.846 147.589 46.307 L 148.763 45.356 L 181.435 45.658 L 184.076 48.681 L 184.013 118.017 Z  M 38.441 96.956 C 37.054 91.959 36.325 86.759 36.325 81.424 C 36.325 76.037 37.072 70.791 38.477 65.759 L 38.441 96.956 Z  M 243.544 121.938 L 242.175 121.867 L 233.622 113.403 L 216.419 87.861 L 211.885 83.256 C 211.885 83.256 210.72 82.055 210.649 81.922 C 210.578 81.789 210.649 80.909 210.649 80.909 L 215.663 75.743 L 219.006 69.733 L 222.714 60.114 L 225.292 53.962 L 226.519 51.419 L 227.39 50.245 L 228.074 49.321 C 228.074 49.321 228.955 49.223 229.195 49.223 C 229.444 49.223 229.586 49.659 230.075 50.05 C 230.564 50.441 232.555 51.57 232.555 51.57 L 235.445 53.126 L 241.001 52.788 L 243.731 50.103 L 243.633 45.996 L 243.339 44.387 L 240.699 41.942 L 239.188 40.919 C 239.188 40.919 238.814 40.724 238.663 40.67 C 238.512 40.626 231.64 40.67 231.64 40.67 L 228.759 41.8 L 226.127 43.311 L 221.344 48.538 L 218.606 56.158 L 214.276 68.222 L 207.369 77.406 L 201.981 80.917 L 201.972 80.917 L 196.078 80.722 L 196.078 48.876 L 197.349 47.294 L 198.709 45.605 L 200.176 44.484 L 210.907 44.387 L 213.05 41.888 L 212.952 37.399 L 189.588 37.088 L 182.502 37.088 L 55.786 37.096 L 6 37.096 L 6 43.249 L 8.667 45.605 L 35.152 45.605 L 38.592 48.121 L 38.699 52.059 C 33.916 61.198 31.249 71.298 31.249 81.922 C 31.249 92.448 33.872 102.468 38.575 111.545 C 38.601 111.598 38.575 118.071 38.575 118.071 L 34.032 121.831 L 27.737 122 L 27.737 125.663 L 48.23 125.663 C 64.268 144.084 90.166 156.042 119.398 156.042 C 148.567 156.042 174.429 144.129 190.468 125.761 L 207.102 125.69 L 207.102 122 L 201.03 122.027 L 196.202 118.32 L 196.149 106.842 L 196.051 85.585 L 200.736 85.585 L 201.723 86.847 L 206.56 93.035 L 213.21 101.57 L 227.826 124.436 L 228.955 125.805 L 247.1 125.69 L 247.1 122.071 L 243.544 121.938 Z " fill="rgb(0,0,0)"/><path d=" M 130.831 126.472 C 130.671 126.49 130.52 126.517 130.36 126.534 C 130.217 126.552 130.066 126.57 129.915 126.588 L 130.831 126.472 Z  M 184.013 118.017 L 180.066 121.991 L 174.207 122.054 L 174.323 125.636 L 182.466 125.805 C 167.273 140.759 144.549 150.254 119.158 150.254 C 93.678 150.254 70.891 140.706 55.698 125.663 L 60.498 125.663 L 60.498 122.952 C 60.498 122.463 60.107 122.062 59.618 122.062 L 55.618 122 L 50.763 118.24 L 50.728 46.832 L 83.418 46.832 L 83.418 117.137 L 79.497 121.831 L 73.71 121.991 L 73.71 125.663 L 105.324 125.663 L 105.324 122.054 L 100.381 122.054 L 96.834 117.395 L 96.834 110.194 L 96.807 57.127 L 96.798 50.468 L 96.834 49.348 L 100.292 45.854 L 101.67 45.854 L 101.643 51.375 L 101.572 68.622 L 103.075 68.613 C 107.004 54.344 116.553 44.271 127.692 44.271 C 127.924 44.271 128.155 44.28 128.386 44.289 C 128.581 44.289 128.786 44.307 128.982 44.316 C 129.195 44.333 129.408 44.351 129.613 44.378 C 129.773 44.387 129.924 44.413 130.084 44.431 C 130.164 44.44 130.253 44.449 130.333 44.467 C 130.422 44.476 130.502 44.484 130.582 44.502 C 130.715 44.529 130.857 44.547 131 44.573 C 131.106 44.591 131.213 44.609 131.329 44.636 C 131.4 44.644 131.489 44.671 131.578 44.689 C 131.746 44.724 131.898 44.76 132.067 44.796 C 132.102 44.805 132.129 44.813 132.155 44.822 C 132.315 44.858 132.475 44.902 132.627 44.947 C 132.716 44.973 132.813 44.991 132.893 45.018 C 132.982 45.045 133.071 45.071 133.151 45.098 C 133.285 45.142 133.427 45.178 133.569 45.231 C 133.649 45.258 133.738 45.285 133.827 45.32 C 133.907 45.347 133.978 45.373 134.058 45.4 C 134.227 45.462 134.387 45.525 134.556 45.587 C 134.734 45.658 134.92 45.729 135.098 45.809 C 135.152 45.827 135.214 45.854 135.267 45.88 C 135.489 45.978 135.703 46.076 135.916 46.174 C 136.014 46.218 136.112 46.271 136.209 46.316 C 136.325 46.378 136.45 46.44 136.574 46.503 C 136.681 46.556 136.787 46.618 136.894 46.672 C 137.276 46.876 137.659 47.098 138.032 47.329 C 138.405 47.561 138.77 47.801 139.134 48.058 C 139.312 48.192 139.499 48.316 139.677 48.458 C 139.81 48.547 139.935 48.645 140.059 48.743 C 140.192 48.841 140.317 48.939 140.441 49.054 C 140.584 49.152 140.708 49.268 140.85 49.374 C 140.904 49.428 140.975 49.472 141.028 49.534 C 141.144 49.623 141.259 49.721 141.375 49.828 C 141.49 49.934 141.606 50.032 141.73 50.148 C 141.757 50.165 141.775 50.183 141.793 50.21 C 141.962 50.361 142.131 50.521 142.282 50.672 C 142.442 50.814 142.593 50.966 142.744 51.117 C 142.78 51.161 142.815 51.197 142.851 51.232 C 142.984 51.366 143.117 51.508 143.251 51.65 C 143.268 51.668 143.277 51.686 143.295 51.703 C 143.429 51.846 143.571 51.988 143.695 52.13 C 143.749 52.192 143.811 52.255 143.864 52.326 C 143.98 52.45 144.095 52.584 144.211 52.726 C 144.335 52.859 144.451 53.01 144.575 53.153 C 144.718 53.33 144.869 53.508 145.011 53.686 C 145.704 54.557 146.362 55.491 146.994 56.46 C 147.109 56.647 147.234 56.833 147.34 57.02 C 147.483 57.242 147.634 57.482 147.758 57.713 C 147.9 57.945 148.043 58.176 148.167 58.407 C 148.265 58.585 148.372 58.763 148.461 58.949 C 148.585 59.171 148.709 59.403 148.825 59.634 L 149.118 60.194 L 149.376 60.727 C 149.492 60.958 149.598 61.19 149.705 61.421 C 149.803 61.625 149.892 61.83 149.981 62.043 C 150.025 62.141 150.07 62.23 150.114 62.336 C 150.185 62.505 150.265 62.674 150.327 62.843 C 150.532 63.314 150.719 63.803 150.905 64.292 C 150.976 64.461 151.03 64.63 151.092 64.808 C 151.101 64.826 151.11 64.844 151.119 64.87 C 151.208 65.11 151.297 65.35 151.385 65.59 C 151.563 66.124 151.75 66.666 151.91 67.208 C 152.079 67.751 152.23 68.293 152.381 68.853 C 152.39 68.871 152.39 68.88 152.399 68.907 C 152.541 69.44 152.675 69.982 152.808 70.533 C 152.87 70.809 152.932 71.094 152.995 71.378 C 153.039 71.591 153.084 71.796 153.128 72.009 C 153.164 72.152 153.19 72.303 153.217 72.445 C 153.235 72.516 153.244 72.587 153.252 72.667 C 153.297 72.872 153.332 73.076 153.368 73.289 C 153.412 73.521 153.457 73.761 153.492 73.992 C 153.546 74.285 153.59 74.588 153.626 74.881 C 153.67 75.148 153.706 75.405 153.741 75.681 C 153.759 75.752 153.759 75.823 153.768 75.894 C 153.804 76.099 153.83 76.303 153.848 76.517 C 153.866 76.65 153.884 76.783 153.901 76.917 L 153.955 77.486 C 153.973 77.575 153.981 77.672 153.981 77.761 C 153.999 77.975 154.017 78.188 154.035 78.41 C 154.061 78.686 154.088 78.962 154.097 79.246 C 154.106 79.299 154.115 79.362 154.115 79.415 L 154.115 79.451 L 154.115 79.415 L 123.523 79.575 L 123.523 85.621 L 154.168 85.656 C 154.195 84.954 154.222 84.18 154.23 83.647 C 154.222 84.643 154.195 85.629 154.124 86.607 L 154.124 86.732 C 154.106 86.972 154.097 87.159 154.088 87.265 C 152.692 106.815 141.41 122.054 127.692 122.054 C 127.061 122.054 126.439 122.027 125.825 121.965 C 125.47 121.982 125.114 121.991 124.759 121.991 C 114.606 121.991 105.84 115.999 101.803 107.367 L 99.216 107.367 C 102.23 115.812 109.022 122.454 117.54 125.281 C 117.557 125.29 117.575 125.299 117.593 125.299 C 120.66 126.205 123.896 126.712 127.221 126.757 L 127.248 126.757 C 127.39 126.757 127.532 126.757 127.684 126.757 C 149.234 126.757 166.713 107.393 166.713 83.514 C 166.713 67.68 159.04 53.846 147.589 46.307 L 148.763 45.356 L 181.435 45.658 L 184.076 48.681 L 184.013 118.017 Z  M 38.441 96.956 C 37.054 91.959 36.325 86.759 36.325 81.424 C 36.325 76.037 37.072 70.791 38.477 65.759 L 38.441 96.956 Z  M 243.544 121.938 L 242.175 121.867 L 233.622 113.403 L 216.419 87.861 L 211.885 83.256 C 211.885 83.256 210.72 82.055 210.649 81.922 C 210.578 81.789 210.649 80.909 210.649 80.909 L 215.663 75.743 L 219.006 69.733 L 222.714 60.114 L 225.292 53.962 L 226.519 51.419 L 227.39 50.245 L 228.074 49.321 C 228.074 49.321 228.955 49.223 229.195 49.223 C 229.444 49.223 229.586 49.659 230.075 50.05 C 230.564 50.441 232.555 51.57 232.555 51.57 L 235.445 53.126 L 241.001 52.788 L 243.731 50.103 L 243.633 45.996 L 243.339 44.387 L 240.699 41.942 L 239.188 40.919 C 239.188 40.919 238.814 40.724 238.663 40.67 C 238.512 40.626 231.64 40.67 231.64 40.67 L 228.759 41.8 L 226.127 43.311 L 221.344 48.538 L 218.606 56.158 L 214.276 68.222 L 207.369 77.406 L 201.981 80.917 L 201.972 80.917 L 196.078 80.722 L 196.078 48.876 L 197.349 47.294 L 198.709 45.605 L 200.176 44.484 L 210.907 44.387 L 213.05 41.888 L 212.952 37.399 L 189.588 37.088 L 182.502 37.088 L 55.786 37.096 L 6 37.096 L 6 43.249 L 8.667 45.605 L 35.152 45.605 L 38.592 48.121 L 38.699 52.059 C 33.916 61.198 31.249 71.298 31.249 81.922 C 31.249 92.448 33.872 102.468 38.575 111.545 C 38.601 111.598 38.575 118.071 38.575 118.071 L 34.032 121.831 L 27.737 122 L 27.737 125.663 L 48.23 125.663 C 64.268 144.084 90.166 156.042 119.398 156.042 C 148.567 156.042 174.429 144.129 190.468 125.761 L 207.102 125.69 L 207.102 122 L 201.03 122.027 L 196.202 118.32 L 196.149 106.842 L 196.051 85.585 L 200.736 85.585 L 201.723 86.847 L 206.56 93.035 L 213.21 101.57 L 227.826 124.436 L 228.955 125.805 L 247.1 125.69 L 247.1 122.071 L 243.544 121.938 Z " fill-rule="evenodd" fill="none" vector-effect="non-scaling-stroke" stroke-width="0.1" stroke="rgb(24,26,28)" stroke-linejoin="miter" stroke-linecap="butt" stroke-miterlimit="3" style="mix-blend-mode:source-over;"/><line x1="154.117" y1="79.415" x2="154.117" y2="79.451"/><line x1="154.117" y1="79.415" x2="154.117" y2="79.451" vector-effect="non-scaling-stroke" stroke-width="0.1" stroke="rgb(24,26,28)" stroke-linejoin="miter" stroke-linecap="butt" stroke-miterlimit="3" style="mix-blend-mode:source-over;"/><line x1="48.23" y1="125.665" x2="55.698" y2="125.665" vector-effect="non-scaling-stroke" stroke-width="0.1" stroke="rgb(24,26,28)" stroke-linejoin="miter" stroke-linecap="butt" stroke-miterlimit="3" style="mix-blend-mode:source-over;"/><line x1="182.463" y1="125.804" x2="190.464" y2="125.768" vector-effect="non-scaling-stroke" stroke-width="0.1" stroke="rgb(24,26,28)" stroke-linejoin="miter" stroke-linecap="butt" stroke-miterlimit="3" style="mix-blend-mode:source-over;"/><path d=" M 60.414 126.103 L 27.742 126.103 L 27.742 125.659 L 60.414 125.659 L 60.414 126.103 Z " fill="rgb(13,15,17)"/><path d=" M 105.442 126.104 L 73.71 126.104 L 73.71 125.659 L 105.442 125.659 L 105.442 126.104 Z " fill="rgb(13,15,17)"/><path d=" M 207.102 126.041 L 174.318 126.041 L 174.318 125.641 L 207.102 125.641 L 207.102 126.041 Z " fill="rgb(13,15,17)"/></g></g></g></svg>