<svg xmlns="http://www.w3.org/2000/svg" xmlns:xlink="http://www.w3.org/1999/xlink" viewBox="0 0 200 200"><defs><style>.cls-1{fill:url(#Безымянный_градиент_110);}.cls-2{fill:#4d4d4d;}.cls-2,.cls-3,.cls-4,.cls-5,.cls-6{stroke:#000;stroke-miterlimit:10;}.cls-3,.cls-4,.cls-5,.cls-6{fill:none;}.cls-3{stroke-width:2px;}.cls-4{opacity:0.5;}.cls-5{opacity:0.48;}.cls-6{stroke-width:3px;}</style><linearGradient id="Безымянный_градиент_110" x1="10.51" y1="10.51" x2="189.49" y2="189.49" gradientUnits="userSpaceOnUse"><stop offset="0.01" stop-color="#bf8bdc" stop-opacity="0.3"/><stop offset="0.26" stop-color="#d49cad" stop-opacity="0.52"/><stop offset="0.51" stop-color="#e6ab83" stop-opacity="0.73"/><stop offset="0.73" stop-color="#f4b664" stop-opacity="0.88"/><stop offset="0.9" stop-color="#fcbd51" stop-opacity="0.97"/><stop offset="1" stop-color="#ffbf4a"/></linearGradient></defs><title>dРесурс 37</title><g id="Слой_2" data-name="Слой 2"><g id="Слой_1-2" data-name="Слой 1"><rect class="cls-1" width="200" height="200" rx="35.88"/><rect class="cls-2" x="35.52" y="19.28" width="125.43" height="9.72" rx="3.91"/><rect class="cls-3" x="111.08" y="117.1" width="52.96" height="52.96" rx="4.54"/><circle cx="118.52" cy="104.58" r="4.26"/><circle cx="137.56" cy="104.58" r="4.26"/><circle class="cls-3" cx="65.88" cy="40.46" r="6.27"/><circle cx="154.17" cy="104.58" r="4.26"/><circle cx="175.12" cy="122.59" r="4.26"/><circle class="cls-3" cx="92.08" cy="40.99" r="6.27"/><circle class="cls-3" cx="121.64" cy="40.99" r="6.27"/><circle class="cls-3" cx="151.2" cy="40.99" r="6.27"/><path class="cls-3" d="M65.88,46.74v19a9.2,9.2,0,0,0,9,9.2l34.62.72a9.19,9.19,0,0,1,9,9.2v15.45"/><path class="cls-3" d="M92.08,47.26V57.83a8.87,8.87,0,0,0,8.61,8.86l28.26.82a8.86,8.86,0,0,1,8.61,8.86v23.95"/><path class="cls-3" d="M121.64,48.71v1.85a9,9,0,0,0,8.65,8.95l15.23.51A9,9,0,0,1,154.17,69v31.35"/><path class="cls-3" d="M158.42,40.46h7.43a9.27,9.27,0,0,1,9.27,9.27v68.6"/><circle class="cls-4" cx="36.99" cy="160.35" r="22.61"/><circle class="cls-5" cx="36.99" cy="100.32" r="22.61"/><ellipse class="cls-6" cx="36.99" cy="160.7" rx="7.88" ry="12.32"/><rect class="cls-3" x="35.52" y="85.49" width="3.37" height="29.88"/></g></g></svg>