<svg xmlns="http://www.w3.org/2000/svg" xmlns:xlink="http://www.w3.org/1999/xlink" viewBox="0 0 201 201"><defs><style>.cls-1,.cls-2,.cls-3,.cls-4{stroke:#000;stroke-miterlimit:10;}.cls-1{opacity:0.85;fill:url(#Безымянный_градиент_30);}.cls-2,.cls-3,.cls-4{fill:none;}.cls-2{stroke-width:2px;}.cls-3{stroke-width:3px;}</style><linearGradient id="Безымянный_градиент_30" x1="99.98" y1="48.94" x2="100.73" y2="123.62" gradientUnits="userSpaceOnUse"><stop offset="0" stop-color="#c15040"/><stop offset="0.7" stop-color="#c45949"/><stop offset="0.99" stop-color="#c65e4f"/></linearGradient></defs><title>dРесурс 2</title><g id="Слой_2" data-name="Слой 2"><g id="Слой_1-2" data-name="Слой 1"><g id="М"><rect class="cls-1" x="0.5" y="0.5" width="200" height="200" rx="35.88"/><circle class="cls-2" cx="125.89" cy="100.5" r="17.27"/><circle class="cls-2" cx="75.11" cy="100.5" r="17.27"/><line class="cls-3" x1="57.84" y1="100.5" x2="36.54" y2="100.5"/><line class="cls-3" x1="18.41" y1="158.13" x2="18.41" y2="180"/><line class="cls-3" x1="18.41" y1="114.1" x2="18.41" y2="158.13"/><path class="cls-3" d="M18.41,114.1c0-7.52,8.11-13.6,18.13-13.6"/><line class="cls-3" x1="143.16" y1="100.5" x2="164.46" y2="100.5"/><line class="cls-3" x1="182.59" y1="42.02" x2="182.59" y2="21.77"/><line class="cls-3" x1="182.59" y1="87.03" x2="182.59" y2="42.02"/><path class="cls-3" d="M182.59,87c0,7.44-8.11,13.47-18.13,13.47"/><circle class="cls-4" cx="74.9" cy="100.41" r="13.06"/><circle class="cls-4" cx="125.75" cy="100.57" r="13.06"/></g></g></g></svg>