<svg width="1240" height="25" viewBox="0 0 1240 25" fill="none" xmlns="http://www.w3.org/2000/svg">
<g clip-path="url(#clip0)">
<line y1="-2" x2="38.1838" y2="-2" transform="matrix(0.707107 0.707107 0.707107 -0.707107 1233.74 -2.77527)" stroke="#15181E" stroke-width="4"/>
<line y1="-2" x2="38.1838" y2="-2" transform="matrix(0.707107 0.707107 0.707107 -0.707107 1219.7 -2.77527)" stroke="#15181E" stroke-width="4"/>
<line y1="-2" x2="38.1838" y2="-2" transform="matrix(0.707107 0.707107 0.707107 -0.707107 1205.66 -2.77527)" stroke="#15181E" stroke-width="4"/>
<line y1="-2" x2="38.1838" y2="-2" transform="matrix(0.707107 0.707107 0.707107 -0.707107 1191.62 -2.77527)" stroke="#15181E" stroke-width="4"/>
<line y1="-2" x2="38.1838" y2="-2" transform="matrix(0.707107 0.707107 0.707107 -0.707107 1177.58 -2.77527)" stroke="#15181E" stroke-width="4"/>
<line y1="-2" x2="38.1838" y2="-2" transform="matrix(0.707107 0.707107 0.707107 -0.707107 1163.54 -2.77527)" stroke="#15181E" stroke-width="4"/>
<line y1="-2" x2="38.1838" y2="-2" transform="matrix(0.707107 0.707107 0.707107 -0.707107 1149.5 -2.77527)" stroke="#15181E" stroke-width="4"/>
<line y1="-2" x2="38.1838" y2="-2" transform="matrix(0.707107 0.707107 0.707107 -0.707107 1135.46 -2.77527)" stroke="#15181E" stroke-width="4"/>
<line y1="-2" x2="38.1838" y2="-2" transform="matrix(0.707107 0.707107 0.707107 -0.707107 1121.42 -2.77527)" stroke="#15181E" stroke-width="4"/>
<line y1="-2" x2="38.1838" y2="-2" transform="matrix(0.707107 0.707107 0.707107 -0.707107 1107.38 -2.77527)" stroke="#15181E" stroke-width="4"/>
<line y1="-2" x2="38.1838" y2="-2" transform="matrix(0.707107 0.707107 0.707107 -0.707107 1093.34 -2.77527)" stroke="#15181E" stroke-width="4"/>
<line y1="-2" x2="38.1838" y2="-2" transform="matrix(0.707107 0.707107 0.707107 -0.707107 1079.3 -2.77527)" stroke="#15181E" stroke-width="4"/>
<line y1="-2" x2="38.1838" y2="-2" transform="matrix(0.707107 0.707107 0.707107 -0.707107 1065.26 -2.77527)" stroke="#15181E" stroke-width="4"/>
<line y1="-2" x2="38.1838" y2="-2" transform="matrix(0.707107 0.707107 0.707107 -0.707107 1051.22 -2.77527)" stroke="#15181E" stroke-width="4"/>
<line y1="-2" x2="38.1838" y2="-2" transform="matrix(0.707107 0.707107 0.707107 -0.707107 1037.18 -2.77527)" stroke="#15181E" stroke-width="4"/>
<line y1="-2" x2="38.1838" y2="-2" transform="matrix(0.707107 0.707107 0.707107 -0.707107 1023.14 -2.77527)" stroke="#15181E" stroke-width="4"/>
<line y1="-2" x2="38.1838" y2="-2" transform="matrix(0.707107 0.707107 0.707107 -0.707107 1009.1 -2.77527)" stroke="#15181E" stroke-width="4"/>
<line y1="-2" x2="38.1838" y2="-2" transform="matrix(0.707107 0.707107 0.707107 -0.707107 995.06 -2.77527)" stroke="#15181E" stroke-width="4"/>
<line y1="-2" x2="38.1838" y2="-2" transform="matrix(0.707107 0.707107 0.707107 -0.707107 981.02 -2.77527)" stroke="#15181E" stroke-width="4"/>
<line y1="-2" x2="38.1838" y2="-2" transform="matrix(0.707107 0.707107 0.707107 -0.707107 966.98 -2.77527)" stroke="#15181E" stroke-width="4"/>
<line y1="-2" x2="38.1838" y2="-2" transform="matrix(0.707107 0.707107 0.707107 -0.707107 952.94 -2.77527)" stroke="#15181E" stroke-width="4"/>
<line y1="-2" x2="38.1838" y2="-2" transform="matrix(0.707107 0.707107 0.707107 -0.707107 938.9 -2.77527)" stroke="#15181E" stroke-width="4"/>
<line y1="-2" x2="38.1838" y2="-2" transform="matrix(0.707107 0.707107 0.707107 -0.707107 924.86 -2.77527)" stroke="#15181E" stroke-width="4"/>
<line y1="-2" x2="38.1838" y2="-2" transform="matrix(0.707107 0.707107 0.707107 -0.707107 910.82 -2.77527)" stroke="#15181E" stroke-width="4"/>
<line y1="-2" x2="38.1838" y2="-2" transform="matrix(0.707107 0.707107 0.707107 -0.707107 896.78 -2.77527)" stroke="#15181E" stroke-width="4"/>
<line y1="-2" x2="38.1838" y2="-2" transform="matrix(0.707107 0.707107 0.707107 -0.707107 882.74 -2.77527)" stroke="#15181E" stroke-width="4"/>
<line y1="-2" x2="38.1838" y2="-2" transform="matrix(0.707107 0.707107 0.707107 -0.707107 868.7 -2.77527)" stroke="#15181E" stroke-width="4"/>
<line y1="-2" x2="38.1838" y2="-2" transform="matrix(0.707107 0.707107 0.707107 -0.707107 854.66 -2.77527)" stroke="#15181E" stroke-width="4"/>
<line y1="-2" x2="38.1838" y2="-2" transform="matrix(0.707107 0.707107 0.707107 -0.707107 840.62 -2.77527)" stroke="#15181E" stroke-width="4"/>
<line y1="-2" x2="38.1838" y2="-2" transform="matrix(0.707107 0.707107 0.707107 -0.707107 826.58 -2.77527)" stroke="#15181E" stroke-width="4"/>
<line y1="-2" x2="38.1838" y2="-2" transform="matrix(0.707107 0.707107 0.707107 -0.707107 812.54 -2.77527)" stroke="#15181E" stroke-width="4"/>
<line y1="-2" x2="38.1838" y2="-2" transform="matrix(0.707107 0.707107 0.707107 -0.707107 798.5 -2.77527)" stroke="#15181E" stroke-width="4"/>
<line y1="-2" x2="38.1838" y2="-2" transform="matrix(0.707107 0.707107 0.707107 -0.707107 784.46 -2.77527)" stroke="#15181E" stroke-width="4"/>
<line y1="-2" x2="38.1838" y2="-2" transform="matrix(0.707107 0.707107 0.707107 -0.707107 770.42 -2.77527)" stroke="#15181E" stroke-width="4"/>
<line y1="-2" x2="38.1838" y2="-2" transform="matrix(0.707107 0.707107 0.707107 -0.707107 756.38 -2.77527)" stroke="#15181E" stroke-width="4"/>
<line y1="-2" x2="38.1838" y2="-2" transform="matrix(0.707107 0.707107 0.707107 -0.707107 742.34 -2.77527)" stroke="#15181E" stroke-width="4"/>
<line y1="-2" x2="38.1838" y2="-2" transform="matrix(0.707107 0.707107 0.707107 -0.707107 728.3 -2.77527)" stroke="#15181E" stroke-width="4"/>
<line y1="-2" x2="38.1838" y2="-2" transform="matrix(0.707107 0.707107 0.707107 -0.707107 714.26 -2.77527)" stroke="#15181E" stroke-width="4"/>
<line y1="-2" x2="38.1838" y2="-2" transform="matrix(0.707107 0.707107 0.707107 -0.707107 700.5 -2.77527)" stroke="#15181E" stroke-width="4"/>
<line y1="-2" x2="38.1838" y2="-2" transform="matrix(0.707107 0.707107 0.707107 -0.707107 686.46 -2.77527)" stroke="#15181E" stroke-width="4"/>
<line y1="-2" x2="38.1838" y2="-2" transform="matrix(0.707107 0.707107 0.707107 -0.707107 672.42 -2.77527)" stroke="#15181E" stroke-width="4"/>
<line y1="-2" x2="38.1838" y2="-2" transform="matrix(0.707107 0.707107 0.707107 -0.707107 658.38 -2.77527)" stroke="#15181E" stroke-width="4"/>
<line y1="-2" x2="38.1838" y2="-2" transform="matrix(0.707107 0.707107 0.707107 -0.707107 644.34 -2.77527)" stroke="#15181E" stroke-width="4"/>
<line y1="-2" x2="38.1838" y2="-2" transform="matrix(0.707107 0.707107 0.707107 -0.707107 630.3 -2.77527)" stroke="#15181E" stroke-width="4"/>
<line y1="-2" x2="38.1838" y2="-2" transform="matrix(0.707107 0.707107 0.707107 -0.707107 616.26 -2.77527)" stroke="#15181E" stroke-width="4"/>
<line y1="-2" x2="38.1838" y2="-2" transform="matrix(0.707107 0.707107 0.707107 -0.707107 602.22 -2.77527)" stroke="#15181E" stroke-width="4"/>
<line y1="-2" x2="38.1838" y2="-2" transform="matrix(0.707107 0.707107 0.707107 -0.707107 588.18 -2.77527)" stroke="#15181E" stroke-width="4"/>
<line y1="-2" x2="38.1838" y2="-2" transform="matrix(0.707107 0.707107 0.707107 -0.707107 574.14 -2.77527)" stroke="#15181E" stroke-width="4"/>
<line y1="-2" x2="38.1838" y2="-2" transform="matrix(0.707107 0.707107 0.707107 -0.707107 560.1 -2.77527)" stroke="#15181E" stroke-width="4"/>
<line y1="-2" x2="38.1838" y2="-2" transform="matrix(0.707107 0.707107 0.707107 -0.707107 546.06 -2.77527)" stroke="#15181E" stroke-width="4"/>
<line y1="-2" x2="38.1838" y2="-2" transform="matrix(0.707107 0.707107 0.707107 -0.707107 532.02 -2.77527)" stroke="#15181E" stroke-width="4"/>
<line y1="-2" x2="38.1838" y2="-2" transform="matrix(0.707107 0.707107 0.707107 -0.707107 517.98 -2.77527)" stroke="#15181E" stroke-width="4"/>
<line y1="-2" x2="38.1838" y2="-2" transform="matrix(0.707107 0.707107 0.707107 -0.707107 503.94 -2.77527)" stroke="#15181E" stroke-width="4"/>
<line y1="-2" x2="38.1838" y2="-2" transform="matrix(0.707107 0.707107 0.707107 -0.707107 489.9 -2.77527)" stroke="#15181E" stroke-width="4"/>
<line y1="-2" x2="38.1838" y2="-2" transform="matrix(0.707107 0.707107 0.707107 -0.707107 475.86 -2.77527)" stroke="#15181E" stroke-width="4"/>
<line y1="-2" x2="38.1838" y2="-2" transform="matrix(0.707107 0.707107 0.707107 -0.707107 461.82 -2.77527)" stroke="#15181E" stroke-width="4"/>
<line y1="-2" x2="38.1838" y2="-2" transform="matrix(0.707107 0.707107 0.707107 -0.707107 447.78 -2.77527)" stroke="#15181E" stroke-width="4"/>
<line y1="-2" x2="38.1838" y2="-2" transform="matrix(0.707107 0.707107 0.707107 -0.707107 433.74 -2.77527)" stroke="#15181E" stroke-width="4"/>
<line y1="-2" x2="38.1838" y2="-2" transform="matrix(0.707107 0.707107 0.707107 -0.707107 419.7 -2.77527)" stroke="#15181E" stroke-width="4"/>
<line y1="-2" x2="38.1838" y2="-2" transform="matrix(0.707107 0.707107 0.707107 -0.707107 405.66 -2.77527)" stroke="#15181E" stroke-width="4"/>
<line y1="-2" x2="38.1838" y2="-2" transform="matrix(0.707107 0.707107 0.707107 -0.707107 391.62 -2.77527)" stroke="#15181E" stroke-width="4"/>
<line y1="-2" x2="38.1838" y2="-2" transform="matrix(0.707107 0.707107 0.707107 -0.707107 377.58 -2.77527)" stroke="#15181E" stroke-width="4"/>
<line y1="-2" x2="38.1838" y2="-2" transform="matrix(0.707107 0.707107 0.707107 -0.707107 363.54 -2.77527)" stroke="#15181E" stroke-width="4"/>
<line y1="-2" x2="38.1838" y2="-2" transform="matrix(0.707107 0.707107 0.707107 -0.707107 349.5 -2.77527)" stroke="#15181E" stroke-width="4"/>
<line y1="-2" x2="38.1838" y2="-2" transform="matrix(0.707107 0.707107 0.707107 -0.707107 335.46 -2.77527)" stroke="#15181E" stroke-width="4"/>
<line y1="-2" x2="38.1838" y2="-2" transform="matrix(0.707107 0.707107 0.707107 -0.707107 321.42 -2.77527)" stroke="#15181E" stroke-width="4"/>
<line y1="-2" x2="38.1838" y2="-2" transform="matrix(0.707107 0.707107 0.707107 -0.707107 307.38 -2.77527)" stroke="#15181E" stroke-width="4"/>
<line y1="-2" x2="38.1838" y2="-2" transform="matrix(0.707107 0.707107 0.707107 -0.707107 293.34 -2.77527)" stroke="#15181E" stroke-width="4"/>
<line y1="-2" x2="38.1838" y2="-2" transform="matrix(0.707107 0.707107 0.707107 -0.707107 279.3 -2.77527)" stroke="#15181E" stroke-width="4"/>
<line y1="-2" x2="38.1838" y2="-2" transform="matrix(0.707107 0.707107 0.707107 -0.707107 265.26 -2.77527)" stroke="#15181E" stroke-width="4"/>
<line y1="-2" x2="38.1838" y2="-2" transform="matrix(0.707107 0.707107 0.707107 -0.707107 251.22 -2.77527)" stroke="#15181E" stroke-width="4"/>
<line y1="-2" x2="38.1838" y2="-2" transform="matrix(0.707107 0.707107 0.707107 -0.707107 237.18 -2.77527)" stroke="#15181E" stroke-width="4"/>
<line y1="-2" x2="38.1838" y2="-2" transform="matrix(0.707107 0.707107 0.707107 -0.707107 223.14 -2.77527)" stroke="#15181E" stroke-width="4"/>
<line y1="-2" x2="38.1838" y2="-2" transform="matrix(0.707107 0.707107 0.707107 -0.707107 209.1 -2.77527)" stroke="#15181E" stroke-width="4"/>
<line y1="-2" x2="38.1838" y2="-2" transform="matrix(0.707107 0.707107 0.707107 -0.707107 195.06 -2.77527)" stroke="#15181E" stroke-width="4"/>
<line y1="-2" x2="38.1838" y2="-2" transform="matrix(0.707107 0.707107 0.707107 -0.707107 181.02 -2.77527)" stroke="#15181E" stroke-width="4"/>
<line y1="-2" x2="38.1838" y2="-2" transform="matrix(0.707107 0.707107 0.707107 -0.707107 181.5 -2.77527)" stroke="#15181E" stroke-width="4"/>
<line y1="-2" x2="38.1838" y2="-2" transform="matrix(0.707107 0.707107 0.707107 -0.707107 167.46 -2.77527)" stroke="#15181E" stroke-width="4"/>
<line y1="-2" x2="38.1838" y2="-2" transform="matrix(0.707107 0.707107 0.707107 -0.707107 153.42 -2.77527)" stroke="#15181E" stroke-width="4"/>
<line y1="-2" x2="38.1838" y2="-2" transform="matrix(0.707107 0.707107 0.707107 -0.707107 139.38 -2.77527)" stroke="#15181E" stroke-width="4"/>
<line y1="-2" x2="38.1838" y2="-2" transform="matrix(0.707107 0.707107 0.707107 -0.707107 125.34 -2.77527)" stroke="#15181E" stroke-width="4"/>
<line y1="-2" x2="38.1838" y2="-2" transform="matrix(0.707107 0.707107 0.707107 -0.707107 111.3 -2.77527)" stroke="#15181E" stroke-width="4"/>
<line y1="-2" x2="38.1838" y2="-2" transform="matrix(0.707107 0.707107 0.707107 -0.707107 97.26 -2.77527)" stroke="#15181E" stroke-width="4"/>
<line y1="-2" x2="38.1838" y2="-2" transform="matrix(0.707107 0.707107 0.707107 -0.707107 83.22 -2.77527)" stroke="#15181E" stroke-width="4"/>
<line y1="-2" x2="38.1838" y2="-2" transform="matrix(0.707107 0.707107 0.707107 -0.707107 69.1799 -2.77527)" stroke="#15181E" stroke-width="4"/>
<line y1="-2" x2="38.1838" y2="-2" transform="matrix(0.707107 0.707107 0.707107 -0.707107 55.1399 -2.77527)" stroke="#15181E" stroke-width="4"/>
<line y1="-2" x2="38.1838" y2="-2" transform="matrix(0.707107 0.707107 0.707107 -0.707107 41.1001 -2.77527)" stroke="#15181E" stroke-width="4"/>
<line y1="-2" x2="38.1838" y2="-2" transform="matrix(0.707107 0.707107 0.707107 -0.707107 27.0601 -2.77527)" stroke="#15181E" stroke-width="4"/>
<line y1="-2" x2="38.1838" y2="-2" transform="matrix(0.707107 0.707107 0.707107 -0.707107 13.02 -2.77527)" stroke="#15181E" stroke-width="4"/>
<line y1="-2" x2="38.1838" y2="-2" transform="matrix(0.707107 0.707107 0.707107 -0.707107 -1.02002 -2.77527)" stroke="#15181E" stroke-width="4"/>
<line y1="-2" x2="38.1838" y2="-2" transform="matrix(0.707107 0.707107 0.707107 -0.707107 -15.0601 -2.77527)" stroke="#15181E" stroke-width="4"/>
</g>
<defs>
<clipPath id="clip0">
<rect width="1239" height="24" transform="matrix(-1 0 0 1 1239.5 0.224731)" fill="white"/>
</clipPath>
</defs>
</svg>
